<svg width="16" height="16" viewBox="0 0 16 16" fill="none" xmlns="http://www.w3.org/2000/svg">
<g clip-path="url(#clip0_1113_18313)">
<path fill-rule="evenodd" clip-rule="evenodd" d="M7.66536 1.83203C4.4437 1.83203 1.83203 4.4437 1.83203 7.66536C1.83203 10.887 4.4437 13.4987 7.66536 13.4987C10.887 13.4987 13.4987 10.887 13.4987 7.66536C13.4987 4.4437 10.887 1.83203 7.66536 1.83203ZM0.832031 7.66536C0.832031 3.89142 3.89142 0.832031 7.66536 0.832031C11.4393 0.832031 14.4987 3.89142 14.4987 7.66536C14.4987 9.37237 13.8728 10.9332 12.8379 12.1308L15.0189 14.3118C15.2142 14.5071 15.2142 14.8237 15.0189 15.0189C14.8237 15.2142 14.5071 15.2142 14.3118 15.0189L12.1308 12.8379C10.9332 13.8728 9.37237 14.4987 7.66536 14.4987C3.89142 14.4987 0.832031 11.4393 0.832031 7.66536Z" fill="white"/>
</g>
<defs>
<clipPath id="clip0_1113_18313">
<rect width="16" height="16" fill="white"/>
</clipPath>
</defs>
</svg>
