<svg width="24" height="24" viewBox="0 0 24 24" fill="none" xmlns="http://www.w3.org/2000/svg">
<g id="fi_838579" clip-path="url(#clip0_1113_18885)">
<g id="Group">
<g id="Group_2">
<path id="Vector" d="M3.51459 0H0.702891C0.314719 0 0 0.314719 0 0.702937V3.56152C0 3.94973 0.314672 4.26445 0.702937 4.26445C1.09116 4.26445 1.40587 3.94973 1.40587 3.56152V1.40587H3.51464C3.90286 1.40587 4.21758 1.09116 4.21758 0.702937C4.21753 0.314719 3.90281 0 3.51459 0Z" fill="white"/>
</g>
</g>
<g id="Group_3">
<g id="Group_4">
<path id="Vector_2" d="M23.2959 0H20.4842C20.096 0 19.7812 0.314719 19.7812 0.702937C19.7812 1.09116 20.0959 1.40587 20.4842 1.40587H22.593V3.56152C22.593 3.94973 22.9077 4.26445 23.2959 4.26445C23.6841 4.26445 23.9988 3.94973 23.9988 3.56152V0.702937C23.9988 0.314719 23.6841 0 23.2959 0Z" fill="white"/>
</g>
</g>
<g id="Group_5">
<g id="Group_6">
<path id="Vector_3" d="M3.51464 22.5871H1.40587V20.4315C1.40587 20.0432 1.09116 19.7285 0.702937 19.7285C0.314719 19.7285 0 20.0432 0 20.4315V23.29C0 23.6782 0.314672 23.993 0.702937 23.993H3.51464C3.90286 23.993 4.21758 23.6782 4.21758 23.29C4.21758 22.9018 3.90286 22.5871 3.51464 22.5871Z" fill="white"/>
</g>
</g>
<g id="Group_7">
<g id="Group_8">
<path id="Vector_4" d="M23.2959 19.7285C22.9077 19.7285 22.593 20.0432 22.593 20.4315V22.5871H20.4842C20.096 22.5871 19.7812 22.9018 19.7812 23.29C19.7812 23.6782 20.096 23.993 20.4842 23.993H23.2959C23.6841 23.993 23.9988 23.6782 23.9988 23.29V20.4315C23.9988 20.0432 23.6841 19.7285 23.2959 19.7285Z" fill="white"/>
</g>
</g>
<g id="Group_9">
<g id="Group_10">
<path id="Vector_5" d="M22.1394 5.76668L12.3494 0.0947109C12.1315 -0.0315703 11.8626 -0.0315703 11.6446 0.0947109L1.85067 5.76663C1.63477 5.89174 1.5 6.12466 1.5 6.37441C1.5 6.37582 1.50014 6.37723 1.50014 6.37859V17.625C1.50014 17.8772 1.63716 18.1131 1.8578 18.2374L11.6447 23.9053C11.7501 23.9664 11.8755 24 11.9971 24C12.124 24 12.248 23.9641 12.3495 23.9053L22.1324 18.2373C22.134 18.2364 22.1356 18.2354 22.1373 18.2345C22.364 18.0709 22.4862 17.9334 22.4896 17.6335C22.4897 17.6307 22.4899 17.6279 22.4899 17.6251V6.37868C22.4899 6.37727 22.4901 6.37587 22.4901 6.37451C22.4901 6.12452 22.3552 5.89155 22.1394 5.76668ZM11.2941 22.0774L3.61477 17.6282L9.53503 14.2331C9.87183 14.04 9.98826 13.6104 9.79509 13.2737C9.60201 12.9369 9.17245 12.8205 8.83566 13.0136L2.90587 16.4117V7.58946L11.2941 12.4068V22.0774ZM11.997 11.1893L3.61373 6.3724L11.997 1.5153L20.3804 6.3724L11.997 11.1893ZM21.0886 16.4117L15.1584 13.0136C14.8217 12.8205 14.3921 12.9368 14.199 13.2736C14.0058 13.6104 14.1223 14.0399 14.4591 14.2331L20.3793 17.6281L12.6999 22.0774V12.4068L21.0886 7.58946V16.4117H21.0886Z" fill="white"/>
</g>
</g>
</g>
<defs>
<clipPath id="clip0_1113_18885">
<rect width="24" height="24" fill="white"/>
</clipPath>
</defs>
</svg>
