<svg width="18" height="18" viewBox="0 0 18 18" fill="none" xmlns="http://www.w3.org/2000/svg">
<path d="M16.2016 8.54922L10.3797 2.64297C10.1266 2.38984 9.73281 2.38984 9.47969 2.64297C9.22656 2.89609 9.22656 3.28984 9.47969 3.54297L14.2047 8.35234H2.25156C1.91406 8.35234 1.63281 8.63359 1.63281 8.97109C1.63281 9.30859 1.91406 9.61797 2.25156 9.61797H14.2609L9.47969 14.4836C9.22656 14.7367 9.22656 15.1305 9.47969 15.3836C9.59219 15.4961 9.76094 15.5523 9.92969 15.5523C10.0984 15.5523 10.2672 15.4961 10.3797 15.3555L16.2016 9.44922C16.4547 9.19609 16.4547 8.80234 16.2016 8.54922Z" fill="white"/>
</svg>
