<svg width="38" height="38" viewBox="0 0 38 38" fill="none" xmlns="http://www.w3.org/2000/svg">
<g id="3d-view 1" clip-path="url(#clip0_1113_20608)">
<g id="Group">
<path id="Vector" d="M31.9831 16.8438V19.2936C34.3811 20.4918 35.7744 21.9749 35.7744 23.4462C35.7744 26.8182 28.9901 29.4672 22.2779 30.0256C21.6651 30.0761 21.2096 30.6139 21.2608 31.226C21.3089 31.8147 21.8164 32.29 22.4612 32.2439C28.3039 31.7629 38.0002 29.2417 38.0002 23.4462C38.0002 20.2809 34.9031 18.1034 31.9831 16.8438Z" fill="white"/>
<path id="Vector_2" d="M12.307 26.2456C11.6889 25.6166 10.6145 25.924 10.4259 26.7882L9.93404 29.0404C2.56619 27.0574 -0.971221 22.7922 6.03028 19.2936V16.8438C-3.15696 20.807 -1.71526 28.2511 9.45844 31.218L9.01617 33.243C8.82654 34.1112 9.68696 34.8456 10.5168 34.5137L16.0813 32.2879C16.8174 31.9935 17.0191 31.0419 16.4619 30.4746L12.307 26.2456Z" fill="white"/>
<path id="Vector_3" d="M19.4946 2.51968C19.1515 2.32515 18.7311 2.32693 18.3895 2.52413L9.36816 7.73258C10.896 8.61467 18.1745 12.8169 19.0048 13.2963L28.6447 7.70468L19.4946 2.51968Z" fill="white"/>
<path id="Vector_4" d="M8.25593 20.0771C8.25593 20.4748 8.46805 20.8421 8.81235 21.0409L17.8938 26.2841V15.2246L8.25586 9.66016L8.25593 20.0771Z" fill="white"/>
<path id="Vector_5" d="M29.757 20.0773V9.63281L20.1191 15.2233V26.2843L29.2006 21.0411C29.545 20.8423 29.757 20.475 29.757 20.0773Z" fill="white"/>
</g>
</g>
<defs>
<clipPath id="clip0_1113_20608">
<rect width="38" height="38" fill="white"/>
</clipPath>
</defs>
</svg>
