<svg width="24" height="24" viewBox="0 0 24 24" fill="none" xmlns="http://www.w3.org/2000/svg">
<g id="fi_9899316" clip-path="url(#clip0_1113_18868)">
<g id="Group">
<path id="Vector" d="M23.2952 8.88281H20.6289C20.2403 8.88281 19.9258 9.19781 19.9258 9.58594C19.9258 9.97406 20.2403 10.2891 20.6289 10.2891H21.2533V14.4141C21.2533 14.8022 21.5683 15.1172 21.9564 15.1172C22.345 15.1172 22.6595 14.8022 22.6595 14.4141V10.2891H23.2952C23.6833 10.2891 23.9983 9.97406 23.9983 9.58594C23.9983 9.19781 23.6833 8.88281 23.2952 8.88281Z" fill="#F5F7F5"/>
<path id="Vector_2" d="M7.94062 10.2891C8.32894 10.2891 8.64375 9.97425 8.64375 9.58594C8.64375 9.19762 8.32894 8.88281 7.94062 8.88281H5.90625C5.51794 8.88281 5.20312 9.19762 5.20312 9.58594V14.4141C5.20312 14.8024 5.51794 15.1172 5.90625 15.1172H7.94062C8.32894 15.1172 8.64375 14.8024 8.64375 14.4141C8.64375 14.0258 8.32894 13.7109 7.94062 13.7109H6.60938V12.7031H7.79062C8.17894 12.7031 8.49375 12.3883 8.49375 12C8.49375 11.6117 8.17894 11.2969 7.79062 11.2969H6.60938V10.2891H7.94062Z" fill="#F5F7F5"/>
<path id="Vector_3" d="M18.1008 10.2891C18.4889 10.2891 18.8039 9.97406 18.8039 9.58594C18.8039 9.19781 18.4889 8.88281 18.1008 8.88281H16.0664C15.6778 8.88281 15.3633 9.19781 15.3633 9.58594V14.4141C15.3633 14.8022 15.6778 15.1172 16.0664 15.1172H18.1008C18.4889 15.1172 18.8039 14.8022 18.8039 14.4141C18.8039 14.0259 18.4889 13.7109 18.1008 13.7109H16.7695V12.7031H17.9503C18.3389 12.7031 18.6534 12.3881 18.6534 12C18.6534 11.6119 18.3389 11.2969 17.9503 11.2969H16.7695V10.2891H18.1008Z" fill="#F5F7F5"/>
<path id="Vector_4" d="M3.31359 15.1172C3.47859 15.1172 3.64453 15.0595 3.77812 14.9419C4.06969 14.6855 4.09781 14.2411 3.84141 13.9495L2.71359 12.6684C3.47484 12.3858 4.01672 11.6733 4.01672 10.8408C4.01672 9.76125 3.10641 8.88281 1.9875 8.88281H0.704063C0.703594 8.88281 0.703594 8.88281 0.703125 8.88281C0.315 8.88281 0 9.19781 0 9.58594V14.4141C0 14.8022 0.315 15.1172 0.703125 15.1172C1.09125 15.1172 1.40625 14.8022 1.40625 14.4141V13.3111L2.78578 14.8786C2.92453 15.0366 3.11859 15.1172 3.31359 15.1172ZM1.9875 11.3925C1.84969 11.3925 1.63078 11.393 1.41281 11.3944C1.41188 11.182 1.41047 10.5113 1.41 10.2891H1.9875C2.325 10.2891 2.61047 10.5417 2.61047 10.8408C2.61047 11.1398 2.325 11.3925 1.9875 11.3925Z" fill="#F5F7F5"/>
<path id="Vector_5" d="M2.83348 5.35641C3.13348 5.60344 3.57645 5.56125 3.82348 5.26172C5.84567 2.81156 8.82551 1.40625 11.9985 1.40625C14.6352 1.40625 17.1379 2.37703 19.0686 4.11094H18.0229C17.6347 4.11094 17.3197 4.42594 17.3197 4.81406C17.3197 5.20266 17.6347 5.51719 18.0229 5.51719H20.7158C20.8775 5.51719 21.0383 5.45953 21.1635 5.35641C21.3233 5.22469 21.4194 5.02078 21.419 4.81313V2.12156C21.419 1.73297 21.104 1.41844 20.7158 1.41844C20.3272 1.41844 20.0127 1.73297 20.0127 2.12156V3.06844C17.8246 1.10156 14.9877 0 11.9985 0C8.40411 0 5.02911 1.59141 2.7388 4.36641C2.49177 4.66594 2.53442 5.10938 2.83348 5.35641Z" fill="#F5F7F5"/>
<path id="Vector_6" d="M12.0379 13.7121C11.5894 13.713 11.1505 13.5307 10.8763 13.2274C10.6157 12.9396 10.1708 12.9176 9.88348 13.1787C9.59567 13.4393 9.57364 13.8841 9.83427 14.1715C10.3785 14.7735 11.1864 15.1187 12.0379 15.1184C13.1038 15.1184 13.9996 14.4345 14.1679 13.4923C14.2949 12.7798 13.9761 11.8502 12.7007 11.3796C12.4513 11.2882 12.2099 11.1926 12.0008 11.1077C11.7261 10.9957 11.5082 10.902 11.4046 10.8565C11.3254 10.7862 11.3244 10.6938 11.3319 10.6418C11.3413 10.5757 11.391 10.413 11.646 10.3362C11.7669 10.2996 11.8865 10.2874 12.0008 10.2921C12.4865 10.3099 12.8783 10.6216 12.8835 10.6259C13.2622 10.8185 13.7052 10.683 13.8833 10.3676C14.023 10.1205 13.985 9.78914 13.7835 9.54539C13.2571 9.08461 12.6243 8.87039 12.0008 8.87508C11.7435 8.87648 11.4871 8.91586 11.2405 8.98992C10.5365 9.20179 10.0382 9.7582 9.93973 10.4421C9.84739 11.0857 10.1268 11.7054 10.6686 12.0588C10.6996 12.079 10.7324 12.0968 10.7661 12.1118C10.7915 12.123 11.3399 12.3673 12.0008 12.6195C12.0707 12.6457 12.1419 12.6724 12.2136 12.6991C12.3608 12.753 12.8357 12.9523 12.7832 13.2452C12.7433 13.4698 12.4466 13.7121 12.0379 13.7121Z" fill="#F5F7F5"/>
<path id="Vector_7" d="M21.0578 18.6433C20.7587 18.3963 20.3153 18.4385 20.0682 18.738C18.0685 21.161 15.1328 22.5621 11.9996 22.593C9.32959 22.6203 6.77842 21.6462 4.82308 19.8888H5.86886C6.25698 19.8888 6.57198 19.5738 6.57198 19.1857C6.57198 18.7971 6.25698 18.4825 5.86886 18.4825H3.17589C2.79808 18.4755 2.46573 18.8088 2.47277 19.1866V21.8782C2.47277 22.2668 2.78777 22.5813 3.17589 22.5813C3.56448 22.5813 3.87902 22.2668 3.87902 21.8782V20.9313C6.09175 22.9216 8.97709 24.0267 11.9996 23.9993C15.5542 23.9683 18.8851 22.3811 21.1529 19.6333C21.4 19.3338 21.3573 18.8903 21.0578 18.6433Z" fill="#F5F7F5"/>
</g>
</g>
<defs>
<clipPath id="clip0_1113_18868">
<rect width="24" height="24" fill="white"/>
</clipPath>
</defs>
</svg>
