<?xml version="1.0" encoding="UTF-8"?>
<svg xmlns="http://www.w3.org/2000/svg" width="26" height="26" viewBox="0 0 26 26" fill="none">
  <g clip-path="url(#clip0_1113_20601)">
    <path d="M10.8526 15.1476C8.46643 12.7614 7.92764 10.3752 7.80609 9.41918C7.77212 9.15484 7.86309 8.88974 8.05221 8.70194L9.98324 6.77177C10.2673 6.48789 10.3177 6.04547 10.1048 5.70496L7.03023 0.930821C6.79467 0.553773 6.31102 0.417692 5.91342 0.616596L0.977642 2.94117C0.656116 3.09949 0.466998 3.4411 0.503504 3.79763C0.762125 6.25453 1.83325 12.2942 7.76859 18.23C13.7039 24.1657 19.7427 25.2364 22.2009 25.495C22.5574 25.5315 22.8991 25.3424 23.0574 25.0209L25.382 20.0851C25.5801 19.6884 25.4449 19.206 25.0695 18.97L20.2953 15.8963C19.955 15.6832 19.5126 15.7332 19.2285 16.017L17.2983 17.9481C17.1105 18.1372 16.8454 18.2281 16.5811 18.1942C15.6251 18.0726 13.2388 17.5338 10.8526 15.1476Z" fill="#0077B3"></path>
    <path d="M20.3283 13.8623C19.8522 13.8623 19.4663 13.4763 19.4663 13.0002C19.4622 9.43107 16.5699 6.53872 13.0007 6.53468C12.5246 6.53468 12.1387 6.14872 12.1387 5.67262C12.1387 5.19651 12.5246 4.81055 13.0007 4.81055C17.5217 4.81554 21.1854 8.47925 21.1904 13.0002C21.1904 13.4763 20.8044 13.8623 20.3283 13.8623Z" fill="#0077B3"></path>
    <path d="M24.6387 13.8621C24.1626 13.8621 23.7766 13.4761 23.7766 13C23.77 7.05141 18.9493 2.23079 13.0007 2.22414C12.5246 2.22414 12.1387 1.83818 12.1387 1.36207C12.1387 0.885961 12.5246 0.5 13.0007 0.5C19.9011 0.507602 25.4931 6.09959 25.5007 13C25.5007 13.2286 25.4099 13.4479 25.2482 13.6096C25.0866 13.7712 24.8673 13.8621 24.6387 13.8621Z" fill="#0077B3"></path>
  </g>
  <defs>
    <clipPath id="clip0_1113_20601">
      <rect width="25" height="25" fill="white" transform="translate(0.5 0.5)"></rect>
    </clipPath>
  </defs>
</svg>
